# xmcd
#
# Track frame offsets: 
#        150
#        14154
#        32328
#        42512
#        57194
#        75679
#        91891
#        110805
#        128818
#        149092
#        176477
#        194638
#        216212
#        234208
#        255982
#
# Disc length: 3675 seconds
#
# Revision: 1
# Processed by: cddbd v1.5.2PL0 Copyright (c) Steve Scherf et al.
# Submitted via: ExactAudioCopy v0.99pb5
#
DISCID=d40e590f
DTITLE=Various Artist - Body and Soul - TL XXD-10 - Christmas - CD 1
DYEAR=2005
DGENRE=Pop
TTITLE0=Bobby Womack - Winter wonderland
TTITLE1=Whispers - Santa Claus is coming to town
TTITLE2=Aretha Franklin - Joy to the world
TTITLE3=Freddie Jackson - Have yourself a merry little Christmas
TTITLE4=Smokey Robinson and The Miracles - Deck the halls
TTITLE5=Natalie Cole - Jingle bells
TTITLE6=Boyz II Men - Let it snow
TTITLE7=Gladys Knight and The Pips - Do you hear what I hear
TTITLE8=O'Jays - Merry Christmas baby
TTITLE9=Temptations - Silent night
TTITLE10=Toni Braxton - Holiday celebrate
TTITLE11=Luther Vandross - This is Christmas
TTITLE12=Isaac Hayes - The mistletoe and me
TTITLE13=Stephanie Mills - This Christmas
TTITLE14=Four Tops feat. Aretha Franklin - White Christmas
EXTD=
EXTT0=
EXTT1=
EXTT2=
EXTT3=
EXTT4=
EXTT5=
EXTT6=
EXTT7=
EXTT8=
EXTT9=
EXTT10=
EXTT11=
EXTT12=
EXTT13=
EXTT14=
PLAYORDER=
